<svg id="Capa_1" enable-background="new 0 0 512 512" height="512" viewBox="0 0 512 512" width="512" xmlns="http://www.w3.org/2000/svg"><g><path d="m139.779 282.817-109.687 109.736.036-46.707-29.998-.024-.13 166.178 166.121-.13-.023-29.999-46.702.037 109.693-109.743zm46.895 89.349-21.264 21.273-46.895-46.914 21.264-21.274zm-156.652 109.812.037-46.957 67.248-67.279 46.895 46.914-67.256 67.285z"/><path d="m481.871 345.918.037 46.7-109.756-109.684-89.358 89.301 109.746 109.673-46.709-.037-.023 29.999 166.192.13-.13-166.106zm-109.719-20.574 21.276 21.262-46.92 46.89-21.276-21.262zm62.86 156.597-67.285-67.24 46.92-46.89 67.294 67.25.037 46.916z"/><path d="m166.097 30.129.023-29.999-166.12-.13.13 166.178 29.999-.023-.036-46.707 109.687 109.736 89.31-89.348-109.695-109.744zm-26.318 156.62-21.264-21.274 46.895-46.914 21.264 21.273zm4.423-89.405-46.895 46.914-67.248-67.279-.037-46.957 46.925.037z"/><path d="m372.152 229.066 109.756-109.683-.037 46.7 29.999.023.13-166.106-166.193.13.023 29.999 46.709-.037-109.745 109.673zm-46.92-89.301 21.276-21.262 46.92 46.89-21.276 21.262zm156.746-109.743-.037 46.916-67.294 67.25-46.92-46.89 67.285-67.24z"/></g></svg>