<svg xmlns="http://www.w3.org/2000/svg" width="62.095" height="60.433" viewBox="0 0 62.095 60.433">
  <g id="shopping-cart" transform="translate(0 -6.028)">
    <g id="Group_157" data-name="Group 157" transform="translate(0 6.028)">
      <g id="Group_156" data-name="Group 156" transform="translate(0 0)">
        <path id="Path_2481" data-name="Path 2481" d="M103.136,350.322a6.483,6.483,0,1,0,6.483,6.483A6.483,6.483,0,0,0,103.136,350.322Zm0,10.084a3.6,3.6,0,1,1,3.6-3.6A3.6,3.6,0,0,1,103.136,360.406Z" transform="translate(-83.328 -302.854)"/>
        <path id="Path_2482" data-name="Path 2482" d="M301.667,350.322a6.483,6.483,0,1,0,6.483,6.483A6.483,6.483,0,0,0,301.667,350.322Zm0,10.084a3.6,3.6,0,1,1,3.6-3.6A3.6,3.6,0,0,1,301.667,360.406Z" transform="translate(-254.487 -302.854)"/>
        <path id="Path_2483" data-name="Path 2483" d="M61.8,15.68a1.8,1.8,0,0,0-1.152-.576l-46.891-.648-1.3-3.962A6.627,6.627,0,0,0,6.267,6.028H1.441a1.441,1.441,0,0,0,0,2.881H6.267A3.746,3.746,0,0,1,9.724,11.43l9.148,27.587-.72,1.657a6.915,6.915,0,0,0,.648,6.267,6.7,6.7,0,0,0,5.4,3.025h28.02a1.441,1.441,0,1,0,0-2.881H24.2a3.674,3.674,0,0,1-3.025-1.729,3.961,3.961,0,0,1-.36-3.457l.576-1.3,30.324-3.169a7.923,7.923,0,0,0,6.843-6.051L62.018,16.9A1.225,1.225,0,0,0,61.8,15.68Zm-6.05,15.054a4.9,4.9,0,0,1-4.394,3.818l-29.964,3.1-6.7-20.312,44.154.648Z" transform="translate(0 -6.028)"/>
      </g>
    </g>
  </g>
</svg>
