<svg xmlns="http://www.w3.org/2000/svg" width="24.05" height="22.547" viewBox="0 0 24.05 22.547">
  <g id="_591965" data-name="591965" transform="translate(0 -16)">
    <g id="Group_159" data-name="Group 159" transform="translate(7.516 16)">
      <g id="Group_158" data-name="Group 158">
        <path id="Path_2496" data-name="Path 2496" d="M168.267,16C164.26,16,160,17.317,160,19.758v3.006a.752.752,0,1,0,1.5,0v-.783a15.674,15.674,0,0,0,13.528,0v.783c0,.735-1.849,1.907-5.324,2.2a.751.751,0,0,0,.062,1.5c.023,0,.042,0,.065,0a12.044,12.044,0,0,0,5.2-1.493v.8c0,.642-1.362,1.565-3.889,2.011a.751.751,0,0,0,.129,1.491.656.656,0,0,0,.132-.012,10.04,10.04,0,0,0,3.627-1.269v.785c0,.642-1.362,1.565-3.889,2.011a.751.751,0,0,0,.129,1.491.656.656,0,0,0,.132-.012A10.068,10.068,0,0,0,175.031,31v.785c0,.642-1.362,1.565-3.889,2.011a.751.751,0,0,0,.129,1.491.656.656,0,0,0,.132-.012A10.068,10.068,0,0,0,175.031,34v.785c0,.735-1.849,1.907-5.324,2.2a.751.751,0,0,0,.062,1.5c.023,0,.042,0,.065,0,3.335-.28,6.7-1.529,6.7-3.695V19.758C176.534,17.317,172.275,16,168.267,16Zm0,6.013c-4.129,0-6.764-1.336-6.764-2.255s2.635-2.255,6.764-2.255,6.764,1.336,6.764,2.255S172.4,22.013,168.267,22.013Z" transform="translate(-160 -16)"/>
      </g>
    </g>
    <g id="Group_161" data-name="Group 161" transform="translate(0 25.019)">
      <g id="Group_160" data-name="Group 160">
        <path id="Path_2497" data-name="Path 2497" d="M8.267,208C4.26,208,0,209.317,0,211.758v6.013c0,2.441,4.26,3.758,8.267,3.758s8.267-1.317,8.267-3.758v-6.013C16.534,209.317,12.275,208,8.267,208Zm6.764,9.77c0,.918-2.635,2.255-6.764,2.255S1.5,218.689,1.5,217.77v-.783a13.638,13.638,0,0,0,6.764,1.535,13.638,13.638,0,0,0,6.764-1.535Zm0-3.006c0,.918-2.635,2.255-6.764,2.255S1.5,215.682,1.5,214.764v-.783a13.638,13.638,0,0,0,6.764,1.535,13.638,13.638,0,0,0,6.764-1.535Zm-6.764-.752c-4.129,0-6.764-1.336-6.764-2.255S4.138,209.5,8.267,209.5s6.764,1.336,6.764,2.255S12.4,214.013,8.267,214.013Z" transform="translate(0 -208)"/>
      </g>
    </g>
  </g>
</svg>
