<svg xmlns="http://www.w3.org/2000/svg" width="43.969" height="29.313" viewBox="0 0 43.969 29.313">
  <g id="Group_47" data-name="Group 47" transform="translate(0 0)">
    <path id="Path_43" data-name="Path 43" d="M-1961.947,588.33a3.664,3.664,0,0,0-3.664,3.664,3.629,3.629,0,0,0,.183,1.13l-2.971,1.889a4.58,4.58,0,0,1-6.006-.962l-2.913-3.563a3.621,3.621,0,0,0,.715-2.158,3.664,3.664,0,0,0-3.664-3.664,3.664,3.664,0,0,0-3.664,3.664,3.621,3.621,0,0,0,.715,2.158l-2.913,3.563a4.58,4.58,0,0,1-6,.962l-2.974-1.889a3.616,3.616,0,0,0,.183-1.13,3.664,3.664,0,0,0-3.664-3.665,3.664,3.664,0,0,0-3.665,3.664,3.664,3.664,0,0,0,3.344,3.651l2.166,12.989a.916.916,0,0,0,.9.766h31.145a.916.916,0,0,0,.9-.766l2.166-12.989a3.664,3.664,0,0,0,3.322-3.977A3.664,3.664,0,0,0-1961.947,588.33Z" transform="translate(2002.252 -584.666)" fill="#ffc107"/>
    <ellipse id="Ellipse_12" data-name="Ellipse 12" cx="15.572" cy="4.58" rx="15.572" ry="4.58" transform="translate(6.412 19.236)" fill="#ffa000"/>
    <path id="Path_44" data-name="Path 44" d="M-1921.761,808.992c-8.195,0-16.489-1.887-16.489-5.5s8.294-5.5,16.489-5.5,16.488,1.887,16.488,5.5S-1913.567,808.992-1921.761,808.992Zm0-9.16c-9.622,0-14.656,2.382-14.656,3.664s5.034,3.664,14.656,3.664,14.656-2.382,14.656-3.664S-1912.14,799.832-1921.761,799.832Z" transform="translate(1943.746 -779.679)" fill="#ffd54f"/>
    <path id="Path_45" data-name="Path 45" d="M-1921.761,808.992c-8.195,0-16.489-1.887-16.489-5.5s8.294-5.5,16.489-5.5,16.488,1.887,16.488,5.5S-1913.567,808.992-1921.761,808.992Zm0-9.16c-9.622,0-14.656,2.382-14.656,3.664s5.034,3.664,14.656,3.664,14.656-2.382,14.656-3.664S-1912.14,799.832-1921.761,799.832Z" transform="translate(1943.746 -779.679)"/>
    <path id="Path_46" data-name="Path 46" d="M-1964.7,609.4a.868.868,0,0,1-.152-.013.916.916,0,0,1-.753-1.053l2.3-13.786a.915.915,0,0,1,.367-.6.937.937,0,0,1,.683-.158,1.852,1.852,0,0,0,2.116-1.544,1.9,1.9,0,0,0,.022-.255,1.832,1.832,0,0,0-1.821-1.843,1.833,1.833,0,0,0-1.843,1.821,1.834,1.834,0,0,0,.291,1,.916.916,0,0,1-.28,1.264l-3.648,2.321a6.412,6.412,0,0,1-8.405-1.35l-3.422-4.183a.916.916,0,0,1,.126-1.282,1.832,1.832,0,0,0,.275-2.576,1.832,1.832,0,0,0-2.576-.275,1.832,1.832,0,0,0-.275,2.576,1.839,1.839,0,0,0,.275.275.916.916,0,0,1,.126,1.282l-3.422,4.183a6.412,6.412,0,0,1-8.406,1.35l-3.647-2.319a.916.916,0,0,1-.28-1.264,1.832,1.832,0,0,0-.55-2.532,1.832,1.832,0,0,0-2.532.55,1.83,1.83,0,0,0-.291,1,1.856,1.856,0,0,0,1.892,1.819,1.857,1.857,0,0,0,.239-.02.929.929,0,0,1,.683.158.917.917,0,0,1,.366.6l2.3,13.786a.916.916,0,0,1-.785,1.031.916.916,0,0,1-1.022-.73l-2.16-12.987a3.664,3.664,0,0,1-3.33-3.971,3.664,3.664,0,0,1,3.971-3.329,3.664,3.664,0,0,1,3.343,3.649,3.622,3.622,0,0,1-.183,1.13l2.972,1.889a4.58,4.58,0,0,0,6.005-.962l2.915-3.561a3.617,3.617,0,0,1-.716-2.16,3.664,3.664,0,0,1,3.664-3.664,3.664,3.664,0,0,1,3.664,3.664,3.62,3.62,0,0,1-.716,2.158l2.915,3.563a4.58,4.58,0,0,0,6,.964l2.973-1.891a3.622,3.622,0,0,1-.183-1.13,3.664,3.664,0,0,1,3.665-3.663,3.664,3.664,0,0,1,3.663,3.665,3.664,3.664,0,0,1-3.344,3.649l-2.166,12.987A.916.916,0,0,1-1964.7,609.4Z" transform="translate(2002.253 -584.667)"/>
  </g>
</svg>
