<svg xmlns="http://www.w3.org/2000/svg" width="29.333" height="22.785" viewBox="0 0 29.333 22.785">
  <g id="friends" transform="translate(0 -57.142)">
    <g id="Group_209" data-name="Group 209" transform="translate(3.545 57.142)">
      <g id="Group_208" data-name="Group 208" transform="translate(0 0)">
        <path id="Path_2508" data-name="Path 2508" d="M67.227,57.142a5.686,5.686,0,1,0,5.354,5.677A5.529,5.529,0,0,0,67.227,57.142Z" transform="translate(-61.873 -57.142)" fill="#fff"/>
      </g>
    </g>
    <g id="Group_211" data-name="Group 211" transform="translate(16.479 57.954)">
      <g id="Group_210" data-name="Group 210" transform="translate(0 0)">
        <path id="Path_2509" data-name="Path 2509" d="M292.229,71.321h-.036a4.441,4.441,0,0,0-3.259,1.473,5.07,5.07,0,0,0,.056,6.836,4.443,4.443,0,0,0,3.246,1.419h.037a4.442,4.442,0,0,0,3.259-1.473,4.984,4.984,0,0,0,1.3-3.429A4.744,4.744,0,0,0,292.229,71.321Z" transform="translate(-287.637 -71.321)" fill="#fff"/>
      </g>
    </g>
    <g id="Group_213" data-name="Group 213" transform="translate(15.466 68.612)">
      <g id="Group_212" data-name="Group 212" transform="translate(0 0)">
        <path id="Path_2510" data-name="Path 2510" d="M275.791,257.358h-.445a8.006,8.006,0,0,0-5.386,2.077A10.337,10.337,0,0,1,274,267.1h9.83v-1.711A8.045,8.045,0,0,0,275.791,257.358Z" transform="translate(-269.96 -257.358)" fill="#fff"/>
      </g>
    </g>
    <g id="Group_215" data-name="Group 215" transform="translate(0 70.272)">
      <g id="Group_214" data-name="Group 214">
        <path id="Path_2511" data-name="Path 2511" d="M17.78,294.405a8.63,8.63,0,0,0-8.614-8.087H8.631A8.631,8.631,0,0,0,0,294.949v1.024H17.8v-1.024Q17.8,294.675,17.78,294.405Z" transform="translate(0 -286.318)" fill="#fff"/>
      </g>
    </g>
  </g>
</svg>
