<svg xmlns="http://www.w3.org/2000/svg" width="88.735" height="87.843" viewBox="0 0 88.735 87.843">
  <path id="globe" d="M75.733,12.871a44.652,44.652,0,0,0-62.731,0,43.577,43.577,0,0,0,0,62.1,44.652,44.652,0,0,0,62.731,0A43.577,43.577,0,0,0,75.733,12.871ZM73.879,68.712a44.438,44.438,0,0,0-6.626-4.857,70.361,70.361,0,0,0,2.676-17.135H82.97a37.765,37.765,0,0,1-9.091,21.992ZM5.765,46.719H18.806a70.36,70.36,0,0,0,2.676,17.135,44.438,44.438,0,0,0-6.626,4.857A37.766,37.766,0,0,1,5.765,46.719ZM14.856,19.13a44.437,44.437,0,0,0,6.626,4.857,70.36,70.36,0,0,0-2.676,17.135H5.765A37.766,37.766,0,0,1,14.856,19.13Zm26.685,5.436a38.718,38.718,0,0,1-13.176-3.3c2.4-6.11,6.815-13.437,13.176-15.253Zm0,5.607v10.95H24.462a65.316,65.316,0,0,1,2.144-14.508A44.429,44.429,0,0,0,41.541,30.173Zm0,16.546v10.95a44.429,44.429,0,0,0-14.935,3.559,65.316,65.316,0,0,1-2.144-14.508Zm0,16.557V81.834c-6.361-1.816-10.779-9.143-13.176-15.253A38.718,38.718,0,0,1,41.541,63.276Zm5.653,0a38.718,38.718,0,0,1,13.176,3.3c-2.4,6.11-6.815,13.437-13.176,15.253Zm0-5.607V46.719H64.273a65.315,65.315,0,0,1-2.144,14.508A44.429,44.429,0,0,0,47.194,57.669Zm0-16.546V30.173a44.429,44.429,0,0,0,14.935-3.559,65.315,65.315,0,0,1,2.144,14.508Zm0-16.557V6.008c6.361,1.816,10.779,9.144,13.176,15.253A38.722,38.722,0,0,1,47.194,24.566ZM59.891,8.8a38.586,38.586,0,0,1,10.02,6.334,38.817,38.817,0,0,1-4.547,3.417A42.01,42.01,0,0,0,59.891,8.8Zm-36.52,9.751a38.831,38.831,0,0,1-4.547-3.417A38.586,38.586,0,0,1,28.844,8.8a42.025,42.025,0,0,0-5.473,9.751Zm0,50.736a42.014,42.014,0,0,0,5.473,9.751,38.586,38.586,0,0,1-10.02-6.334A38.817,38.817,0,0,1,23.371,69.289Zm41.993,0a38.834,38.834,0,0,1,4.547,3.417,38.586,38.586,0,0,1-10.02,6.334,42.009,42.009,0,0,0,5.473-9.751Zm4.565-28.166a70.359,70.359,0,0,0-2.676-17.135,44.447,44.447,0,0,0,6.626-4.857A37.766,37.766,0,0,1,82.97,41.123Z" transform="translate(0 0)" fill="#b7b7b7"/>
</svg>
