<svg xmlns="http://www.w3.org/2000/svg" width="29.543" height="30.631" viewBox="0 0 29.543 30.631">
  <g id="home" transform="translate(-3394.233 856.7)">
    <path id="Path_60" data-name="Path 60" d="M3395.484-844.031a1.248,1.248,0,0,1-.969-.459,1.25,1.25,0,0,1,.178-1.759l11.595-9.468a4.389,4.389,0,0,1,5.552.012l11.481,9.459a1.25,1.25,0,0,1,.17,1.76,1.249,1.249,0,0,1-1.759.17l-11.482-9.459a1.883,1.883,0,0,0-2.382-.005l-11.595,9.468A1.243,1.243,0,0,1,3395.484-844.031Z" transform="translate(0 0)" fill="#9f9f9f"/>
    <path id="Path_61" data-name="Path 61" d="M3431.638-762.842h-11.131a5.8,5.8,0,0,1-5.793-5.793v-10.944a1.25,1.25,0,0,1,1.25-1.25,1.25,1.25,0,0,1,1.25,1.25v10.944a3.3,3.3,0,0,0,3.293,3.293h11.131a3.3,3.3,0,0,0,3.293-3.293v-10.944a1.25,1.25,0,0,1,1.25-1.25,1.25,1.25,0,0,1,1.25,1.25v10.944A5.8,5.8,0,0,1,3431.638-762.842Z" transform="translate(-17.068 -63.227)" fill="#9f9f9f"/>
  </g>
</svg>
