<svg xmlns="http://www.w3.org/2000/svg" width="17.616" height="21.14" viewBox="0 0 17.616 21.14">
  <g id="notification" transform="translate(-42.675)">
    <g id="Group_217" data-name="Group 217" transform="translate(42.675)">
      <g id="Group_216" data-name="Group 216">
        <path id="Path_2512" data-name="Path 2512" d="M60.228,17.831,58.716,15.31a7.488,7.488,0,0,1-1.068-3.853V9.249a6.174,6.174,0,0,0-4.4-5.906V1.762a1.762,1.762,0,0,0-3.523,0V3.343a6.174,6.174,0,0,0-4.4,5.906v2.208a7.493,7.493,0,0,1-1.067,3.852L42.738,17.83a.441.441,0,0,0,.377.668H59.851a.44.44,0,0,0,.378-.667Z" transform="translate(-42.675)" fill="#fff"/>
      </g>
    </g>
    <g id="Group_219" data-name="Group 219" transform="translate(48.709 19.378)">
      <g id="Group_218" data-name="Group 218">
        <path id="Path_2513" data-name="Path 2513" d="M188.815,469.333a3.064,3.064,0,0,0,5.547,0Z" transform="translate(-188.815 -469.333)" fill="#fff"/>
      </g>
    </g>
  </g>
</svg>
