<svg xmlns="http://www.w3.org/2000/svg" width="106.353" height="130.27" viewBox="0 0 106.353 130.27">
  <path id="Path_946" data-name="Path 946" d="M150.786,48.136a27.882,27.882,0,0,0-12.337-37.472,2.6,2.6,0,1,0-2.341,4.637A22.682,22.682,0,0,1,143.4,50a17.288,17.288,0,0,0-8.312-8.779,11.587,11.587,0,1,0-18.375,0A17.287,17.287,0,0,0,108.4,50a22.683,22.683,0,0,1,7.3-34.7,2.6,2.6,0,1,0-2.339-4.638,27.875,27.875,0,0,0-11.287,10.389A53.176,53.176,0,0,0,58.045,100.2a27.88,27.88,0,0,0,48.686,27.089,53.175,53.175,0,0,0,44.055-79.154Zm1.536,23.435H132.266c-.073-2.942-.27-5.859-.588-8.719a27.921,27.921,0,0,0,15.867-9.726A47.994,47.994,0,0,1,152.322,71.571Zm-42.678,49.214a27.885,27.885,0,0,0-.963-18.73h14.092C119.542,111.4,114.828,118.065,109.643,120.785Zm-27.331-35.9c-.3-2.665-.481-5.381-.552-8.122h20.058v15.5A27.779,27.779,0,0,0,82.935,84.88c-.208,0-.416,0-.623.008ZM99.174,27.558a28.077,28.077,0,0,0-1.164,8.013,27.73,27.73,0,0,0,2.14,10.711H86.059C89.286,36.944,93.995,30.283,99.174,27.558Zm2.644,23.917v20.1H81.76a89.882,89.882,0,0,1,2.733-20.1Zm5.194,45.385v-20.1h20.058a89.884,89.884,0,0,1-2.733,20.1Zm0-25.29V56.07A27.779,27.779,0,0,0,125.9,63.456c.208,0,.416,0,.623-.008.3,2.664.481,5.381.552,8.123ZM125.9,27.781a6.393,6.393,0,1,1-6.393,6.393A6.4,6.4,0,0,1,125.9,27.781Zm-4.4,17.109a11.558,11.558,0,0,0,8.8,0c4.724,1.388,8.169,4.944,8.861,9.081a22.642,22.642,0,0,1-26.525,0c.693-4.137,4.138-7.692,8.862-9.081ZM90.015,28.422c-3.813,4.316-7.054,10.383-9.428,17.86H65.37A48.4,48.4,0,0,1,90.015,28.422ZM62.13,51.476H79.136a96.179,96.179,0,0,0-2.572,20.1H56.509A47.947,47.947,0,0,1,62.13,51.476Zm-5.621,25.29H76.564c.073,2.941.27,5.858.588,8.719A27.919,27.919,0,0,0,61.286,95.21a47.988,47.988,0,0,1-4.777-18.445Zm13.164,54.4c.693-4.137,4.137-7.693,8.86-9.082a11.56,11.56,0,0,0,8.8,0c4.723,1.39,8.168,4.945,8.861,9.081a22.643,22.643,0,0,1-26.525,0Zm13.262-13.4a6.393,6.393,0,1,1,6.393-6.393A6.4,6.4,0,0,1,82.935,117.762Zm17.5,9.434a17.3,17.3,0,0,0-8.312-8.778,11.587,11.587,0,1,0-18.376,0,17.289,17.289,0,0,0-8.311,8.779,22.691,22.691,0,1,1,35,0Zm18.381-7.281c3.813-4.316,7.054-10.383,9.428-17.86h15.217A48.4,48.4,0,0,1,118.815,119.915ZM146.7,96.861H129.694a96.178,96.178,0,0,0,2.572-20.1h20.056a47.947,47.947,0,0,1-5.621,20.1Z" transform="translate(-51.239 -10.381)" fill="#fff"/>
</svg>
