<svg xmlns="http://www.w3.org/2000/svg" width="46.866" height="34.855" viewBox="0 0 46.866 34.855">
  <g id="online" transform="translate(-2421.058 880.008)">
    <path id="Path_890" data-name="Path 890" d="M2449.686-857.192a7.026,7.026,0,0,1-7.018-7.018,7.026,7.026,0,0,1,7.018-7.018,7.026,7.026,0,0,1,7.018,7.018A7.026,7.026,0,0,1,2449.686-857.192Zm0-11.572a4.559,4.559,0,0,0-4.554,4.554,4.559,4.559,0,0,0,4.554,4.554,4.559,4.559,0,0,0,4.554-4.554A4.559,4.559,0,0,0,2449.686-868.764Z" transform="translate(-14.023 -5.697)" fill="#9f9f9f"/>
    <path id="Path_891" data-name="Path 891" d="M2449.036-810a1.232,1.232,0,0,1-1.232-1.232,12.155,12.155,0,0,0-12.142-12.141,12.155,12.155,0,0,0-12.141,12.141A1.232,1.232,0,0,1,2422.29-810a1.232,1.232,0,0,1-1.232-1.232,14.622,14.622,0,0,1,14.6-14.6,14.622,14.622,0,0,1,14.605,14.6A1.232,1.232,0,0,1,2449.036-810Z" transform="translate(0 -35.151)" fill="#9f9f9f"/>
    <path id="Path_892" data-name="Path 892" d="M2499.975-865.972a7.026,7.026,0,0,1-7.018-7.018,7.026,7.026,0,0,1,7.018-7.018,7.026,7.026,0,0,1,7.018,7.018A7.026,7.026,0,0,1,2499.975-865.972Zm0-11.572a4.559,4.559,0,0,0-4.554,4.554,4.559,4.559,0,0,0,4.554,4.554,4.559,4.559,0,0,0,4.554-4.554A4.559,4.559,0,0,0,2499.975-877.544Z" transform="translate(-46.656 0)" fill="#9f9f9f"/>
    <path id="Path_893" data-name="Path 893" d="M2509.838-818.782a1.232,1.232,0,0,1-1.232-1.232,12.155,12.155,0,0,0-12.141-12.141,12.063,12.063,0,0,0-6.976,2.2,1.232,1.232,0,0,1-1.717-.3,1.232,1.232,0,0,1,.3-1.716,14.515,14.515,0,0,1,8.394-2.652,14.622,14.622,0,0,1,14.6,14.605A1.232,1.232,0,0,1,2509.838-818.782Z" transform="translate(-43.146 -29.453)" fill="#9f9f9f"/>
  </g>
</svg>
