<svg id="Component_1_1" data-name="Component 1 – 1" xmlns="http://www.w3.org/2000/svg" width="125.792" height="92.807" viewBox="0 0 125.792 92.807">
  <path id="Path_947" data-name="Path 947" d="M135.827,330H51.965A20.989,20.989,0,0,0,31,350.965v25.718a4.193,4.193,0,0,0,4.193,4.193H85.51a4.193,4.193,0,0,0,4.193-4.193V355.158h8.386v21.525a4.193,4.193,0,0,0,4.193,4.193H152.6a4.193,4.193,0,0,0,4.193-4.193V350.965A20.989,20.989,0,0,0,135.827,330Zm-54.51,42.49H56.158V350.965a4.193,4.193,0,0,0-8.386,0V372.49H39.386V350.965a12.594,12.594,0,0,1,12.579-12.579H68.738a12.594,12.594,0,0,1,12.579,12.579Zm20.965-25.718h-13a20.883,20.883,0,0,0-3.782-8.386h50.328a12.594,12.594,0,0,1,12.579,12.579V372.49H140.02V350.965a4.193,4.193,0,0,0-8.386,0V372.49H106.475V350.965A4.193,4.193,0,0,0,102.282,346.772Z" transform="translate(-31 -288.069)" fill="#fff"/>
  <path id="Path_948" data-name="Path 948" d="M117.931,200.965a20.965,20.965,0,1,0-20.965,20.965A20.989,20.989,0,0,0,117.931,200.965ZM96.965,213.545a12.579,12.579,0,1,1,12.579-12.579A12.594,12.594,0,0,1,96.965,213.545Z" transform="translate(-63.421 -180)" fill="#fff"/>
  <path id="Path_949" data-name="Path 949" d="M327.931,200.965a20.965,20.965,0,1,0-20.965,20.965A20.989,20.989,0,0,0,327.931,200.965Zm-20.965,12.579a12.579,12.579,0,1,1,12.579-12.579A12.594,12.594,0,0,1,306.965,213.545Z" transform="translate(-214.718 -180)" fill="#fff"/>
</svg>
