<svg id="random" xmlns="http://www.w3.org/2000/svg" width="27.552" height="24" viewBox="0 0 27.552 24">
  <g id="Group_31" data-name="Group 31" transform="translate(0 2.583)">
    <g id="Group_30" data-name="Group 30">
      <path id="Path_38" data-name="Path 38" d="M3400.59,190.959l-5.166-4.3a.807.807,0,0,0-1.324.62v1.776h-2.637a4.445,4.445,0,0,1-4.413-4.359,9.269,9.269,0,0,0-1.884-5.651,9.475,9.475,0,0,0-7.533-3.766h-1.776a2.529,2.529,0,0,0,0,5.058h1.776a4.364,4.364,0,0,1,4.359,4.359,9.267,9.267,0,0,0,1.884,5.651,9.529,9.529,0,0,0,7.587,3.766h2.637v1.776a.807.807,0,0,0,1.324.62l5.166-4.3a.807.807,0,0,0,0-1.24Z" transform="translate(-3373.329 -175.274)" fill="#454545"/>
    </g>
  </g>
  <g id="Group_33" data-name="Group 33" transform="translate(0 15.004)">
    <g id="Group_32" data-name="Group 32">
      <path id="Path_39" data-name="Path 39" d="M3382.589,409.724a10.79,10.79,0,0,1-1.8-3.62,4.346,4.346,0,0,1-3.154,1.354h-1.776a2.529,2.529,0,0,0,0,5.058h1.776a9.461,9.461,0,0,0,5.688-1.92A10.781,10.781,0,0,1,3382.589,409.724Z" transform="translate(-3373.329 -406.104)" fill="#454545"/>
    </g>
  </g>
  <g id="Group_35" data-name="Group 35" transform="translate(12.395)">
    <g id="Group_34" data-name="Group 34">
      <path id="Path_40" data-name="Path 40" d="M3618.535,131.766l-5.166-4.3a.807.807,0,0,0-1.324.62v1.776h-2.637a9.569,9.569,0,0,0-5.74,1.922,11,11,0,0,1,2.542,4.527,4.434,4.434,0,0,1,3.2-1.391h2.637v1.776a.807.807,0,0,0,1.324.62l5.166-4.3a.807.807,0,0,0,0-1.24Z" transform="translate(-3603.669 -127.274)" fill="#454545"/>
    </g>
  </g>
</svg>
