<svg xmlns="http://www.w3.org/2000/svg" width="27.485" height="33.252" viewBox="0 0 27.485 33.252">
  <g id="scoreboard" transform="translate(0 0)">
    <path id="Path_56" data-name="Path 56" d="M3108.986-877.091l-.473,2.757a.737.737,0,0,0,.293.72.738.738,0,0,0,.433.141.738.738,0,0,0,.343-.085l2.476-1.3,2.476,1.3a.736.736,0,0,0,.343.085h0a.737.737,0,0,0,.735-.737.746.746,0,0,0-.018-.165l-.466-2.717,2-1.953a.736.736,0,0,0,.187-.755.736.736,0,0,0-.594-.5l-2.769-.4-1.238-2.509a.736.736,0,0,0-.66-.41.737.737,0,0,0-.66.41l-1.238,2.509-2.769.4a.737.737,0,0,0-.594.5.736.736,0,0,0,.186.755Zm1.769-2.209a.737.737,0,0,0,.554-.4l.749-1.518.749,1.518a.738.738,0,0,0,.555.4l1.675.243-1.212,1.182a.736.736,0,0,0-.212.652l.286,1.669-1.5-.788a.738.738,0,0,0-.343-.085.737.737,0,0,0-.343.085l-1.5.788.286-1.668a.735.735,0,0,0-.212-.652l-1.212-1.182Z" transform="translate(-3098.315 883.622)" fill="#9f9f9f"/>
    <path id="Path_57" data-name="Path 57" d="M3063.728-758.815h-10.219v-11.362a4.64,4.64,0,0,1,4.634-4.634h.95a4.639,4.639,0,0,1,4.634,4.634Zm-8.633-1.586h7.047v-9.776a3.052,3.052,0,0,0-3.048-3.049h-.95a3.052,3.052,0,0,0-3.048,3.049Z" transform="translate(-3053.509 792.066)" fill="#9f9f9f"/>
    <path id="Path_58" data-name="Path 58" d="M3118.167-786.509h-10.219v-16.582a4.64,4.64,0,0,1,4.634-4.634h.95a4.64,4.64,0,0,1,4.635,4.634Zm-8.633-1.586h7.047v-15a3.052,3.052,0,0,0-3.049-3.049h-.95a3.052,3.052,0,0,0-3.048,3.049Z" transform="translate(-3099.315 819.761)" fill="#9f9f9f"/>
    <path id="Path_59" data-name="Path 59" d="M3172.6-735.019h-10.219V-741.9a4.64,4.64,0,0,1,4.635-4.634h.95a4.64,4.64,0,0,1,4.634,4.634Zm-8.633-1.586h7.047V-741.9a3.052,3.052,0,0,0-3.048-3.049h-.95a3.052,3.052,0,0,0-3.049,3.049Z" transform="translate(-3145.12 768.271)" fill="#9f9f9f"/>
  </g>
</svg>
