<svg xmlns="http://www.w3.org/2000/svg" width="416.195" height="248.498" viewBox="0 0 416.195 248.498">
  <g id="Component_3_1" data-name="Component 3 – 1" transform="translate(6.399)">
    <g id="Group_24" data-name="Group 24" transform="translate(-1045.096 -894.135)">
      <g id="Group_2" data-name="Group 2" transform="translate(1237.773 960.228)">
        <path id="Path_2" data-name="Path 2" d="M1264.219,1015.362c-.058,0-.116,0-.178,0-7.368-.327-15.038-.991-22.8-1.971a3.965,3.965,0,0,1-2.718-6.254q9.5-13.17,18.953-26.39,6.814-9.511,13.633-19a3.951,3.951,0,0,1,4.14-1.541,90.3,90.3,0,0,0,9.111,1.63c.79.118,1.51.189,2.269.262,1.517.154,3.071.308,4.662.383a3.968,3.968,0,0,1,3.213,6l-26.883,44.964A3.965,3.965,0,0,1,1264.219,1015.362Zm-15.31-9.078c4.445.459,8.836.8,13.129,1.036l22.408-37.483q-.592-.069-1.185-.154c-2.54-.332-4.972-.735-7.237-1.2q-6.058,8.429-12.1,16.874Q1256.426,995.827,1248.909,1006.283Z" transform="translate(-1237.773 -960.086)" fill="#272727"/>
      </g>
      <g id="Group_3" data-name="Group 3" transform="translate(1285.194 1004.442)">
        <path id="Path_3" data-name="Path 3" d="M1289.056,1015.107a3.961,3.961,0,0,1-3.791-5.124l.91-2.973a3.962,3.962,0,0,1,5.212-2.542c2.017.775,4.232,1.589,6.632,2.4a3.967,3.967,0,0,1-.956,7.71c-2.524.2-5.088.362-7.771.521C1289.215,1015.105,1289.134,1015.107,1289.056,1015.107Z" transform="translate(-1285.092 -1004.204)" fill="#272727"/>
      </g>
      <g id="Group_4" data-name="Group 4" transform="translate(1375.235 907.499)">
        <path id="Path_4" data-name="Path 4" d="M1434.732,949.5a3.952,3.952,0,0,1-1.5-.295l-55.826-22.8a3.962,3.962,0,0,1-1.646-6.086c1.157-1.506,2.315-3.129,3.511-4.826,1.239-1.8,2.505-3.756,3.729-5.787a3.956,3.956,0,0,1,1.827-1.594l.546-.219a4.9,4.9,0,0,1,2.061-.414l63.439,3.964a3.963,3.963,0,0,1,3.461,5.369,142.187,142.187,0,0,1-16.355,31A3.968,3.968,0,0,1,1434.732,949.5ZM1385.1,920.983l48.16,19.668a133.97,133.97,0,0,0,11.635-21.636l-56.151-3.511c-.98,1.562-1.971,3.077-2.966,4.521C1385.554,920.349,1385.329,920.668,1385.1,920.983Z" transform="translate(-1374.939 -907.47)" fill="#272727"/>
      </g>
      <g id="Group_5" data-name="Group 5" transform="translate(1237.773 960.034)">
        <path id="Path_5" data-name="Path 5" d="M1264.219,1015.362c-.058,0-.116,0-.178,0-7.368-.327-15.038-.991-22.8-1.971a3.965,3.965,0,0,1-2.722-6.25c5.653-7.844,11.132-15.848,16.429-23.589,4.932-7.208,10.032-14.662,15.282-22a3.977,3.977,0,0,1,4.31-1.506l.728.158a90.086,90.086,0,0,0,9.092,1.627c.789.118,1.51.189,2.269.262,1.517.154,3.071.308,4.662.383a3.968,3.968,0,0,1,3.213,6l-26.883,44.964A3.965,3.965,0,0,1,1264.219,1015.362Zm-15.349-9.082c4.458.459,8.859.807,13.168,1.039l22.408-37.483q-.592-.069-1.184-.154c-2.87-.376-5.6-.839-8.1-1.377-4.67,6.58-9.235,13.249-13.664,19.719C1257.4,994.014,1253.191,1000.157,1248.87,1006.281Z" transform="translate(-1237.773 -959.893)" fill="#272727"/>
      </g>
      <g id="Group_6" data-name="Group 6" transform="translate(1285.194 1004.442)">
        <path id="Path_6" data-name="Path 6" d="M1289.056,1015.107a3.961,3.961,0,0,1-3.791-5.124l.91-2.973a3.962,3.962,0,0,1,5.212-2.542c2.017.775,4.232,1.589,6.632,2.4a3.967,3.967,0,0,1-.956,7.71c-2.524.2-5.088.362-7.771.521C1289.215,1015.105,1289.134,1015.107,1289.056,1015.107Z" transform="translate(-1285.092 -1004.204)" fill="#272727"/>
      </g>
      <g id="Group_7" data-name="Group 7" transform="translate(1375.235 907.499)">
        <path id="Path_7" data-name="Path 7" d="M1434.732,949.5a3.952,3.952,0,0,1-1.5-.295l-55.826-22.8a3.962,3.962,0,0,1-1.646-6.086c1.157-1.506,2.315-3.129,3.511-4.826,1.239-1.8,2.505-3.756,3.729-5.787a3.956,3.956,0,0,1,1.827-1.594l.546-.219a4.9,4.9,0,0,1,2.061-.414l63.439,3.964a3.963,3.963,0,0,1,3.461,5.369,142.187,142.187,0,0,1-16.355,31A3.968,3.968,0,0,1,1434.732,949.5ZM1385.1,920.983l48.16,19.668a133.97,133.97,0,0,0,11.635-21.636l-56.151-3.511c-.98,1.562-1.971,3.077-2.966,4.521C1385.554,920.349,1385.329,920.668,1385.1,920.983Z" transform="translate(-1374.939 -907.47)" fill="#272727"/>
      </g>
      <g id="Group_8" data-name="Group 8" transform="translate(1237.773 960.228)">
        <path id="Path_8" data-name="Path 8" d="M1264.219,1015.362c-.058,0-.116,0-.178,0-7.368-.327-15.038-.991-22.8-1.971a3.965,3.965,0,0,1-2.718-6.254q9.5-13.17,18.953-26.39,6.814-9.511,13.633-19a3.951,3.951,0,0,1,4.14-1.541,90.3,90.3,0,0,0,9.111,1.63c.79.118,1.51.189,2.269.262,1.517.154,3.071.308,4.662.383a3.968,3.968,0,0,1,3.213,6l-26.883,44.964A3.965,3.965,0,0,1,1264.219,1015.362Zm-15.31-9.078c4.445.459,8.836.8,13.129,1.036l22.408-37.483q-.592-.069-1.185-.154c-2.54-.332-4.972-.735-7.237-1.2q-6.058,8.429-12.1,16.874Q1256.426,995.827,1248.909,1006.283Z" transform="translate(-1237.773 -960.086)" fill="#272727"/>
      </g>
      <g id="Group_9" data-name="Group 9" transform="translate(1285.194 1004.442)">
        <path id="Path_9" data-name="Path 9" d="M1289.056,1015.107a3.961,3.961,0,0,1-3.791-5.124l.91-2.973a3.962,3.962,0,0,1,5.212-2.542c2.017.775,4.232,1.589,6.632,2.4a3.967,3.967,0,0,1-.956,7.71c-2.524.2-5.088.362-7.771.521C1289.215,1015.105,1289.134,1015.107,1289.056,1015.107Z" transform="translate(-1285.092 -1004.204)" fill="#272727"/>
      </g>
      <g id="Group_10" data-name="Group 10" transform="translate(1375.235 907.499)">
        <path id="Path_10" data-name="Path 10" d="M1434.732,949.5a3.952,3.952,0,0,1-1.5-.295l-55.826-22.8a3.962,3.962,0,0,1-1.646-6.086c1.157-1.506,2.315-3.129,3.511-4.826,1.239-1.8,2.505-3.756,3.729-5.787a3.956,3.956,0,0,1,1.827-1.594l.546-.219a4.9,4.9,0,0,1,2.061-.414l63.439,3.964a3.963,3.963,0,0,1,3.461,5.369,142.187,142.187,0,0,1-16.355,31A3.968,3.968,0,0,1,1434.732,949.5ZM1385.1,920.983l48.16,19.668a133.97,133.97,0,0,0,11.635-21.636l-56.151-3.511c-.98,1.562-1.971,3.077-2.966,4.521C1385.554,920.349,1385.329,920.668,1385.1,920.983Z" transform="translate(-1374.939 -907.47)" fill="#272727"/>
      </g>
      <g id="Group_11" data-name="Group 11" transform="translate(1366.95 926.845)">
        <path id="Path_11" data-name="Path 11" d="M1370.677,936.294h-.039a3.966,3.966,0,0,1-2.916-6.652l1.514-1.6a3.964,3.964,0,1,1,5.816,5.39l-1.459,1.579A3.963,3.963,0,0,1,1370.677,936.294Z" transform="translate(-1366.672 -926.775)" fill="#272727"/>
      </g>
      <g id="Group_12" data-name="Group 12" transform="translate(1375.198 918.799)">
        <path id="Path_12" data-name="Path 12" d="M1378.867,926.715a3.964,3.964,0,0,1-3.965-3.965v-.039a3.984,3.984,0,0,1,7.968,0A4.031,4.031,0,0,1,1378.867,926.715Z" transform="translate(-1374.902 -918.746)" fill="#272727"/>
      </g>
      <g id="Group_13" data-name="Group 13" transform="translate(1269.494 894.135)">
        <path id="Path_13" data-name="Path 13" d="M1296.028,970.661h-.674q-2.207,0-4.286-.127c-1.963-.08-3.663-.244-5.277-.411-.871-.079-1.731-.17-2.6-.3a96.762,96.762,0,0,1-9.855-1.772c-.53-.112-.782-.168-1.033-.241a3.964,3.964,0,0,1-2.857-4.238,77.845,77.845,0,0,1,47.055-63.7,73.378,73.378,0,0,1,28.538-5.742c24.168,0,42.548,11.7,44.566,13.031a3.961,3.961,0,0,1,1.15,5.444l-.787,1.3c-1.258,2.088-2.61,4.178-3.961,6.143-1.294,1.832-2.513,3.539-3.733,5.126-.046.061-.092.118-.143.175-2.013,2.64-4.259,5.3-6.857,8.137l-1.514,1.594c-.825.866-1.6,1.645-2.339,2.38-1.309,1.27-2.5,2.418-3.647,3.442-.833.8-1.762,1.6-2.609,2.323-1.115.956-2.447,2.082-4.016,3.372l-4.147,3.2c-2.749,2.073-5.676,4.056-8.681,5.882a99.427,99.427,0,0,1-13.079,6.767c-1,.48-2.192.956-3.392,1.428-1.29.5-2.61.994-3.93,1.447-3.171,1.072-5.851,1.86-8.448,2.483l-.538.124c-1.026.232-2.036.459-3.1.664-.205.059-.414.109-.616.152a4.962,4.962,0,0,1-.774.162c-.612.122-1.224.239-1.84.32-1.332.258-2.872.469-4.5.676-1.247.147-2.223.259-3.2.337l-1.572.12c-1.2.114-2.481.161-3.69.2C1298.2,970.623,1297.094,970.661,1296.028,970.661Zm-18.233-9.75c2.017.4,4.221.763,6.5,1.059.79.118,1.51.189,2.269.262,1.517.154,3.071.308,4.662.383,1.556.078,2.822.116,4.131.116h.674c.976,0,1.987-.037,3-.071,1.409-.049,2.528-.083,3.644-.19l1.625-.123c.864-.07,1.747-.174,2.661-.282,1.61-.2,3-.391,4.394-.651.725-.1,1.228-.208,1.739-.31l.116-.022c.077-.021.154-.041.22-.054a3.608,3.608,0,0,1,.7-.172c1.053-.2,2.044-.422,3.05-.65l.5-.112c2.308-.554,4.766-1.278,7.69-2.267,1.2-.413,2.424-.871,3.606-1.328,1.006-.395,2.024-.794,3.008-1.267a92.42,92.42,0,0,0,12.211-6.31c2.8-1.7,5.5-3.531,8.054-5.455l3.91-3.022c1.483-1.216,2.769-2.308,3.865-3.245.752-.638,1.564-1.339,2.377-2.116,1.173-1.049,2.281-2.125,3.469-3.272.65-.652,1.379-1.38,2.111-2.147l1.467-1.547c2.408-2.626,4.492-5.095,6.35-7.529a4.4,4.4,0,0,1,.4-.5c1.091-1.431,2.184-2.962,3.31-4.563.81-1.176,1.63-2.418,2.443-3.706a78.575,78.575,0,0,0-36.9-9.752,65.512,65.512,0,0,0-25.474,5.127A69.832,69.832,0,0,0,1277.8,960.911Z" transform="translate(-1269.425 -894.135)" fill="#272727"/>
      </g>
      <g id="Group_14" data-name="Group 14" transform="translate(1366.95 926.845)">
        <path id="Path_14" data-name="Path 14" d="M1370.677,936.294h-.039a3.966,3.966,0,0,1-2.916-6.652l1.514-1.6a3.964,3.964,0,1,1,5.816,5.39l-1.459,1.579A3.963,3.963,0,0,1,1370.677,936.294Z" transform="translate(-1366.672 -926.775)" fill="#272727"/>
      </g>
      <g id="Group_15" data-name="Group 15" transform="translate(1375.198 918.799)">
        <path id="Path_15" data-name="Path 15" d="M1378.867,926.715a3.964,3.964,0,0,1-3.965-3.965v-.039a3.984,3.984,0,0,1,7.968,0A4.031,4.031,0,0,1,1378.867,926.715Z" transform="translate(-1374.902 -918.746)" fill="#272727"/>
      </g>
      <g id="Group_16" data-name="Group 16" transform="translate(1354.737 928.456)">
        <path id="Path_16" data-name="Path 16" d="M1396.4,985.732a3.961,3.961,0,0,1-2.819-1.176l-37.942-38.3a3.962,3.962,0,0,1,.3-5.857c1.521-1.247,2.807-2.339,3.9-3.276.752-.638,1.564-1.339,2.377-2.116,1.173-1.049,2.281-2.125,3.469-3.272.65-.652,1.379-1.38,2.111-2.147a4.111,4.111,0,0,1,4.882-.7l50.789,29.182a3.961,3.961,0,0,1,.882,6.185,130.962,130.962,0,0,1-25.876,20.891A3.957,3.957,0,0,1,1396.4,985.732Zm-32.1-41.994,32.671,32.974a122.817,122.817,0,0,0,18.048-14.346l-43.665-25.09-.116.116c-1.309,1.27-2.5,2.418-3.647,3.442-.833.8-1.762,1.6-2.609,2.323C1364.763,943.345,1364.539,943.539,1364.3,943.738Z" transform="translate(-1354.485 -928.382)" fill="#272727"/>
      </g>
      <g id="Group_17" data-name="Group 17" transform="translate(1342.366 939.574)">
        <path id="Path_17" data-name="Path 17" d="M1370.69,998.356h-.039a3.961,3.961,0,0,1-3.426-1.97L1342.68,954.2a3.964,3.964,0,0,1,1.367-5.382c2.784-1.691,5.487-3.524,8.042-5.448l3.91-3.022a3.964,3.964,0,0,1,5.293.3l37.95,38.3a3.967,3.967,0,0,1-.729,6.159,154.42,154.42,0,0,1-26.4,12.981A3.978,3.978,0,0,1,1370.69,998.356Zm-19.236-44.846,20.917,35.953a147.364,147.364,0,0,0,17.667-8.531l-31.894-32.2-1.3.974C1355.113,951.019,1353.3,952.291,1351.454,953.51Z" transform="translate(-1342.141 -939.476)" fill="#272727"/>
      </g>
      <g id="Group_18" data-name="Group 18" transform="translate(1326.507 948.336)">
        <path id="Path_18" data-name="Path 18" d="M1343.283,1006.664a3.965,3.965,0,0,1-3.787-2.807l-13.009-42.625a3.968,3.968,0,0,1,2.346-4.848c1.022-.4,2.04-.8,3.025-1.271a92.427,92.427,0,0,0,12.211-6.31,3.965,3.965,0,0,1,5.5,1.387l24.545,42.187a3.966,3.966,0,0,1-2,5.694,218.153,218.153,0,0,1-27.9,8.483A4.034,4.034,0,0,1,1343.283,1006.664Zm-8.166-44.323,10.865,35.613c6.815-1.726,13.06-3.595,18.9-5.667l-20.169-34.668a97.559,97.559,0,0,1-9.594,4.72Z" transform="translate(-1326.316 -948.22)" fill="#272727"/>
      </g>
      <g id="Group_19" data-name="Group 19" transform="translate(1310.331 956.228)">
        <path id="Path_19" data-name="Path 19" d="M1316.8,1012.159a3.966,3.966,0,0,1-3.958-3.721l-2.656-43.421a3.964,3.964,0,0,1,3.16-4.124,3.51,3.51,0,0,1,.7-.172c1.053-.2,2.044-.422,3.054-.652l.492-.11c2.308-.554,4.766-1.278,7.689-2.267,1.2-.413,2.424-.871,3.606-1.328a3.963,3.963,0,0,1,5.226,2.539l13,42.621a3.969,3.969,0,0,1-2.857,5.013c-5.641,1.363-11.082,2.489-15.882,3.483l-1.693.351c-2.85.6-5.913,1.168-9.22,1.733A4.026,4.026,0,0,1,1316.8,1012.159Zm1.506-44.231,2.177,35.586q2.379-.442,4.576-.9l1.712-.354c3.717-.769,7.531-1.558,11.527-2.466l-10.547-34.559c-3.133,1.056-5.785,1.835-8.36,2.452l-.534.122Z" transform="translate(-1310.175 -956.094)" fill="#272727"/>
      </g>
      <g id="Group_20" data-name="Group 20" transform="translate(1286.102 960.965)">
        <path id="Path_20" data-name="Path 20" d="M1296.744,1014.685a4.014,4.014,0,0,1-1.274-.209c-2.509-.852-4.818-1.7-6.927-2.511a3.965,3.965,0,0,1-2.366-4.879l13.044-41.989a3.964,3.964,0,0,1,3.493-2.777l1.544-.117c.864-.07,1.747-.174,2.657-.28,1.615-.2,3.009-.393,4.4-.653.725-.1,1.228-.208,1.739-.31.046-.01.093-.018.142-.026a4.064,4.064,0,0,1,3.195.56,3.968,3.968,0,0,1,1.758,3.033l2.657,43.413a3.965,3.965,0,0,1-3.311,4.155c-6.846,1.135-13.715,2-20.409,2.577C1296.969,1014.681,1296.857,1014.685,1296.744,1014.685Zm-1.882-8.826c.767.279,1.56.557,2.37.838,5.08-.453,10.253-1.078,15.437-1.864l-2.168-35.392c-.774.114-1.591.222-2.428.329-.774.091-1.444.168-2.071.234Z" transform="translate(-1285.998 -960.822)" fill="#272727"/>
      </g>
      <g id="Group_21" data-name="Group 21" transform="translate(1260.253 962.45)">
        <path id="Path_21" data-name="Path 21" d="M1275.255,1015.6q-5.464,0-11.259-.247a3.964,3.964,0,0,1-3.229-6l26.883-44.963a3.97,3.97,0,0,1,3.4-1.931c.081,0,.434,0,.515.008,1.232.074,2.5.112,3.806.112h.674c.972,0,1.983-.037,2.993-.071,1.413-.049,2.532-.083,3.648-.19a3.909,3.909,0,0,1,3.453,1.448,3.964,3.964,0,0,1,.708,3.677l-13.916,44.837a3.986,3.986,0,0,1-3.621,2.946C1284.572,1015.476,1279.84,1015.6,1275.255,1015.6Zm-4.22-7.966c5.065.083,9.978.017,15.089-.191l11.477-36.953c-.55.015-1.053.023-1.553.023h-.674q-1.081,0-2.125-.031Z" transform="translate(-1260.204 -962.302)" fill="#272727"/>
      </g>
      <g id="Group_22" data-name="Group 22" transform="translate(1366.99 918.797)">
        <path id="Path_22" data-name="Path 22" d="M1421.507,965.493h-.042a3.973,3.973,0,0,1-1.974-.526L1368.7,935.785a3.965,3.965,0,0,1-.941-6.125l1.475-1.6c2.467-2.693,4.6-5.221,6.494-7.715a3.523,3.523,0,0,1,.4-.448,3.81,3.81,0,0,1,.584-.481,3.948,3.948,0,0,1,3.709-.38l55.827,22.8a3.963,3.963,0,0,1,1.754,5.936c-.675.97-1.391,1.98-2.15,2.95-.778,1.078-1.687,2.275-2.633,3.469-.8,1.037-1.712,2.161-2.629,3.239l-.593.707c-.711.85-1.436,1.714-2.21,2.552-.23.26-.469.527-.729.787-.062.073-.124.144-.19.212-.93.974-1.747,1.826-2.559,2.641A3.963,3.963,0,0,1,1421.507,965.493Zm-44.578-34.126,43.866,25.2c.019-.019.038-.041.057-.061a4.222,4.222,0,0,1,.546-.589,4.734,4.734,0,0,0,.457-.491c.794-.864,1.433-1.63,2.064-2.382l.623-.744c.84-.987,1.669-2.005,2.423-2.988.554-.7,1.08-1.379,1.587-2.054l-48.364-19.751C1379.167,928.777,1378.082,930.056,1376.929,931.367Z" transform="translate(-1366.712 -918.744)" fill="#272727"/>
      </g>
      <g id="Group_23" data-name="Group 23" transform="translate(1292.882 955.122)">
        <path id="Path_23" data-name="Path 23" d="M1337.7,1021.773a132.485,132.485,0,0,1-42.235-7.283,3.964,3.964,0,0,1,.925-7.707c6.493-.558,13.153-1.4,19.8-2.5,3.179-.543,6.141-1.089,8.905-1.675l1.712-.354c4.972-1.028,10.114-2.094,15.624-3.427a210.056,210.056,0,0,0,26.906-8.172c.1-.04.209-.075.314-.106a146.123,146.123,0,0,0,24.792-12.21,123.2,123.2,0,0,0,24.328-19.639,3.9,3.9,0,0,1,.41-.373c.671-.675,1.336-1.375,2.006-2.074a4.063,4.063,0,0,1,4.925-.744,3.917,3.917,0,0,1,1.851,4.517,82.944,82.944,0,0,1-13.494,26.393c-13.989,18.272-31.759,25.362-39.344,28.39A100.655,100.655,0,0,1,1337.7,1021.773Zm-19.929-9.715c19.418,3.412,38.077,1.9,54.413-4.613,7.57-3.021,23.325-9.306,35.986-25.846a73.254,73.254,0,0,0,4.406-6.43,129.218,129.218,0,0,1-13.97,9.918,154.365,154.365,0,0,1-26.388,12.972c-.1.038-.209.075-.314.106a219.206,219.206,0,0,1-27.622,8.375c-5.63,1.361-11.071,2.487-15.871,3.481l-1.693.351C1323.949,1010.956,1320.976,1011.509,1317.77,1012.058Z" transform="translate(-1292.763 -954.991)" fill="#272727"/>
      </g>
    </g>
    <path id="Path_24" data-name="Path 24" d="M242.028,706.624S185.992,756.8,78.907,788.565" transform="matrix(0.998, -0.07, 0.07, 0.998, -19.549, -537.948)" fill="none" stroke="#fff" stroke-linecap="round" stroke-width="8"/>
    <path id="Path_28" data-name="Path 28" d="M180.984,706.624s-35.066,43.45-102.077,70.961" transform="matrix(0.799, 0.602, -0.602, 0.799, 467.564, -592.758)" fill="none" stroke="#fff" stroke-linecap="round" stroke-width="8"/>
    <path id="Path_27" data-name="Path 27" d="M199.368,706.624s-41.381,34.253-120.461,55.94" transform="translate(212.5 -548.658) rotate(22)" fill="none" stroke="#fff" stroke-linecap="round" stroke-width="8"/>
    <path id="Path_26" data-name="Path 26" d="M157.029,706.624s-26.837,30.047-78.122,49.07" transform="matrix(0.921, 0.391, -0.391, 0.921, 295.97, -583.058)" fill="none" stroke="#fff" stroke-linecap="round" stroke-width="8"/>
    <ellipse id="Ellipse_2" data-name="Ellipse 2" cx="5.5" cy="15.5" rx="5.5" ry="15.5" transform="matrix(0.914, 0.407, -0.407, 0.914, 260.245, 25.987)" fill="#fff"/>
  </g>
</svg>
