<svg xmlns="http://www.w3.org/2000/svg" width="105.64" height="99.606" viewBox="0 0 105.64 99.606">
  <g id="swords" transform="translate(0 -0.234)">
    <path id="Path_2485" data-name="Path 2485" d="M98.043,88.907a1.676,1.676,0,0,0-2.369,0L93.3,91.275,82.641,80.615,86.2,77.06a5.026,5.026,0,0,0-7.107-7.107L77.9,71.138l-8.151-8.152,18.4-18.4a1.68,1.68,0,0,0,.44-.773l5.268-20.795a1.674,1.674,0,0,0-2.049-2.031L71.146,26.378a1.674,1.674,0,0,0-.76.437l-18.4,18.4L35.257,28.49a1.675,1.675,0,0,0-.762-.437l-20.67-5.391a1.675,1.675,0,0,0-2.047,2.033l5.27,20.793a1.682,1.682,0,0,0,.441.773L34.215,62.986l-6.476,6.476-1.185-1.185a5.148,5.148,0,0,0-7.106,0,5.03,5.03,0,0,0,0,7.107L23,78.94,12.338,89.6,9.969,87.232a1.676,1.676,0,0,0-2.369,0L.491,94.338a1.674,1.674,0,0,0,0,2.369L3,99.22a8.331,8.331,0,0,0,11.563,11.563l2.511,2.512a1.676,1.676,0,0,0,2.37,0l7.106-7.109a1.674,1.674,0,0,0,0-2.369l-2.369-2.369L34.847,90.785l4.738,4.738a5.025,5.025,0,1,0,7.106-7.107l-1.184-1.184,6.476-6.476,8.151,8.151-1.184,1.185A5.025,5.025,0,1,0,66.057,97.2l4.738-4.737,10.663,10.662-2.369,2.369a1.675,1.675,0,0,0,0,2.37l7.106,7.108a1.676,1.676,0,0,0,2.37,0l2.511-2.511a8.336,8.336,0,0,0,11.559-11.56l2.514-2.515a1.674,1.674,0,0,0,0-2.369Zm-22.508-15.4-5.27,5.27-8.151-8.152,5.269-5.269ZM20.182,44.216l-4.46-17.6,17.486,4.563,16.4,16.4-5.269,5.268L37.1,45.605a1.675,1.675,0,0,0-2.369,2.369l7.249,7.249-5.393,5.393ZM6.415,107.37a5.044,5.044,0,0,1-.978-5.715l6.687,6.687a5,5,0,0,1-5.71-.972Zm11.847,2.371L4.045,95.523l4.739-4.738L23,105Zm3.554-10.663-7.109-7.108L25.369,81.308l7.108,7.108Zm22.5-5.924a1.711,1.711,0,0,1-2.367,0L21.816,73.015a1.676,1.676,0,0,1,0-2.369,1.673,1.673,0,0,1,2.368,0L44.322,90.785a1.668,1.668,0,0,1,.491,1.185A1.651,1.651,0,0,1,44.32,93.153ZM37.745,79.47,70.914,46.3a1.675,1.675,0,1,0-2.369-2.369L35.376,77.1l-5.27-5.271L72.433,29.506l17.484-4.563-4.458,17.6L43.138,84.862Zm16.607-1.083,5.393-5.394L67.9,81.146,62.5,86.538Zm9.336,16.442a1.709,1.709,0,0,1-2.369,0,1.672,1.672,0,0,1,0-2.367L81.457,72.322a1.675,1.675,0,0,1,2.369,2.369Zm9.476-4.738,7.108-7.108L90.935,93.644l-7.109,7.109ZM87.38,111.415l-4.738-4.739L96.858,92.46,101.6,97.2Zm11.847-2.37a5.041,5.041,0,0,1-5.7.965l6.67-6.671A5.049,5.049,0,0,1,99.227,109.045Zm0,0" transform="translate(0 -15.619)" fill="#fff"/>
    <path id="Path_2486" data-name="Path 2486" d="M169.051,11.273a7.848,7.848,0,0,1,6.184,5.71l.206.782a1.674,1.674,0,0,0,3.239,0l.206-.782a7.856,7.856,0,0,1,6.186-5.71,1.676,1.676,0,0,0,0-3.3,7.858,7.858,0,0,1-6.186-5.709l-.206-.783a1.675,1.675,0,0,0-3.239,0l-.206.783a7.847,7.847,0,0,1-6.184,5.709,1.676,1.676,0,0,0,0,3.3Zm8.01-4.952a11.279,11.279,0,0,0,3.283,3.3,11.28,11.28,0,0,0-3.283,3.3,11.266,11.266,0,0,0-3.282-3.3A11.255,11.255,0,0,0,177.062,6.321Zm0,0" transform="translate(-126.524 0)" fill="#fff"/>
    <path id="Path_2487" data-name="Path 2487" d="M335.954,121.168a1.673,1.673,0,0,0-1.62,1.248l-.309,1.173a12.578,12.578,0,0,1-9.911,9.147,1.676,1.676,0,0,0,0,3.3,12.578,12.578,0,0,1,9.911,9.148l.309,1.173a1.675,1.675,0,0,0,3.239,0l.31-1.173a12.578,12.578,0,0,1,9.91-9.148,1.676,1.676,0,0,0,0-3.3,12.576,12.576,0,0,1-9.91-9.147l-.31-1.173A1.673,1.673,0,0,0,335.954,121.168Zm6.532,13.217a16,16,0,0,0-6.533,6.586,15.982,15.982,0,0,0-6.533-6.586,15.966,15.966,0,0,0,6.533-6.584A15.988,15.988,0,0,0,342.486,134.386Zm0,0" transform="translate(-243.533 -91.256)" fill="#fff"/>
    <path id="Path_2488" data-name="Path 2488" d="M7.207,133.98a5.175,5.175,0,0,1,4.077,3.764l.149.565a1.675,1.675,0,0,0,3.239,0l.149-.565A5.181,5.181,0,0,1,18.9,133.98a1.676,1.676,0,0,0,0-3.3,5.175,5.175,0,0,1-4.079-3.763l-.149-.565a1.675,1.675,0,0,0-3.239,0l-.149.567a5.173,5.173,0,0,1-4.077,3.761,1.676,1.676,0,0,0,0,3.3Zm5.846-3.21a8.529,8.529,0,0,0,1.555,1.561,8.627,8.627,0,0,0-1.555,1.562,8.612,8.612,0,0,0-1.552-1.562A8.514,8.514,0,0,0,13.052,130.77Zm0,0" transform="translate(-4.398 -94.227)" fill="#fff"/>
  </g>
</svg>
