<svg id="XMLID_1031_" xmlns="http://www.w3.org/2000/svg" width="92.606" height="92.606" viewBox="0 0 92.606 92.606">
  <g id="XMLID_971_">
    <g id="XMLID_977_">
      <path id="XMLID_1030_" d="M82.725,17.714h2.861a1.808,1.808,0,1,0,0-3.615H78.718a1.808,1.808,0,0,0-1.808,1.808v6.869a1.808,1.808,0,0,0,3.615,0V20.786A42.688,42.688,0,1,1,46.3,3.615a43.331,43.331,0,0,1,5.208.314A1.808,1.808,0,0,0,51.947.341,46.961,46.961,0,0,0,46.3,0,46.3,46.3,0,0,0,13.562,79.044a46.3,46.3,0,0,0,69.163-61.33Z"/>
      <path id="XMLID_1029_" d="M73,80.694a1.808,1.808,0,0,0-2.494.56,34.514,34.514,0,1,0,10.8-10.781,1.808,1.808,0,0,0,1.928,3.058,30.912,30.912,0,1,1-5.4,48.025,31.108,31.108,0,0,1-4.281-38.368A1.808,1.808,0,0,0,73,80.694Z" transform="translate(-53.397 -53.398)"/>
      <path id="XMLID_1028_" d="M377.977,249.945h2.229a1.808,1.808,0,0,0,0-3.615h-2.229a1.808,1.808,0,1,0,0,3.615Z" transform="translate(-308.176 -201.805)"/>
      <path id="XMLID_1004_" d="M103.835,247.814a1.808,1.808,0,0,0,1.808,1.807h2.229a1.808,1.808,0,1,0,0-3.615h-2.229A1.808,1.808,0,0,0,103.835,247.814Z" transform="translate(-85.067 -201.54)"/>
      <path id="XMLID_1001_" d="M249.945,107.872v-2.229a1.808,1.808,0,1,0-3.615,0v2.229a1.808,1.808,0,1,0,3.615,0Z" transform="translate(-201.805 -85.067)"/>
      <path id="XMLID_1415_" d="M246.006,377.977v2.229a1.808,1.808,0,0,0,3.615,0v-2.229a1.808,1.808,0,1,0-3.615,0Z" transform="translate(-201.54 -308.176)"/>
      <path id="XMLID_996_" d="M192.058,161.245A1.808,1.808,0,1,0,189.5,163.8l6.126,6.126a6.227,6.227,0,1,0,10.981,0l12.36-12.36a1.808,1.808,0,1,0-2.556-2.556l-12.36,12.36a6.214,6.214,0,0,0-5.868,0Zm11.672,11.616a2.612,2.612,0,1,1-2.612-2.612A2.615,2.615,0,0,1,203.73,172.861Z" transform="translate(-154.815 -126.558)"/>
      <path id="XMLID_980_" d="M121.263,121.263a1.807,1.807,0,1,0-1.278.53A1.815,1.815,0,0,0,121.263,121.263Z" transform="translate(-96.817 -96.817)"/>
      <path id="XMLID_979_" d="M317.246,13.493a1.808,1.808,0,1,0-1.278-.53A1.815,1.815,0,0,0,317.246,13.493Z" transform="translate(-258.422 -8.093)"/>
    </g>
  </g>
</svg>
