<svg xmlns="http://www.w3.org/2000/svg" width="17.829" height="10.344" viewBox="0 0 17.829 10.344">
  <path id="university" d="M16.985,6.746V3.1a.531.531,0,0,0-.368-.505L8.655.024a.53.53,0,0,0-.326,0L.367,2.591a.531.531,0,0,0,0,1.01L4.353,4.886V6.877c0,.009,0,.017,0,.026.016.516.5,1.006,1.378,1.38a7.167,7.167,0,0,0,2.76.531,7.167,7.167,0,0,0,2.76-.531c.889-.381,1.378-.88,1.378-1.406V4.886l3.293-1.061V6.746a1.377,1.377,0,0,0-.844,1.268v1.8a.531.531,0,0,0,.531.531H17.3a.531.531,0,0,0,.531-.531v-1.8a1.376,1.376,0,0,0-.844-1.268Zm-6.316.628a6.454,6.454,0,0,1-4.352,0,2.117,2.117,0,0,1-.9-.542v-1.6l2.915.94a.531.531,0,0,0,.326,0l2.915-.94V6.833a2.122,2.122,0,0,1-.9.541ZM8.492,5.105,2.26,3.1,8.492,1.087,14.725,3.1Zm8.275,4.176h-.627V8.014a.313.313,0,0,1,.627,0Zm0,0" transform="translate(0.001 0.001)" fill="#4d4d4d"/>
</svg>
