<svg id="up-arrow" xmlns="http://www.w3.org/2000/svg" width="21.642" height="21.642" viewBox="0 0 21.642 21.642">
  <g id="Group_198" data-name="Group 198">
    <g id="Group_197" data-name="Group 197">
      <path id="Path_2506" data-name="Path 2506" d="M10.821,0A10.821,10.821,0,1,0,21.642,10.821,10.833,10.833,0,0,0,10.821,0Zm0,19.966a9.145,9.145,0,1,1,9.145-9.145A9.155,9.155,0,0,1,10.821,19.966Z" fill="#fda455"/>
    </g>
  </g>
  <g id="Group_200" data-name="Group 200" transform="translate(5.842 7.543)">
    <g id="Group_199" data-name="Group 199">
      <path id="Path_2507" data-name="Path 2507" d="M147.963,182.881l-4.191-4.191a.838.838,0,0,0-1.182,0l-4.191,4.191a.838.838,0,0,0,1.182,1.182l3.6-3.6,3.6,3.6a.836.836,0,0,0,1.182-1.182Z" transform="translate(-138.197 -178.446)" fill="#fda455"/>
    </g>
  </g>
</svg>
