<svg id="english" xmlns="http://www.w3.org/2000/svg" width="81" height="81" viewBox="0 0 81 81">
  <path id="Path_36" data-name="Path 36" d="M72.273,33.043H47.956V22.658l7.9-5.645a2.373,2.373,0,0,0,0-3.862l-8-5.713A8.741,8.741,0,0,0,39.229,0H8.728A8.737,8.737,0,0,0,0,8.728v30.5a8.737,8.737,0,0,0,8.728,8.727H33.044V58.342l-7.9,5.645a2.373,2.373,0,0,0,0,3.862l8,5.713A8.741,8.741,0,0,0,41.771,81h30.5A8.737,8.737,0,0,0,81,72.272v-30.5A8.737,8.737,0,0,0,72.273,33.043ZM8.728,43.21a3.986,3.986,0,0,1-3.982-3.982V8.727A3.986,3.986,0,0,1,8.728,4.746h30.5A3.986,3.986,0,0,1,43.21,8.727a2.372,2.372,0,0,0,.994,1.931L50.4,15.082,44.2,19.505a2.374,2.374,0,0,0-.994,1.931V33.043H41.771a8.737,8.737,0,0,0-8.727,8.727v1.44ZM76.254,72.272a3.986,3.986,0,0,1-3.981,3.982h-30.5a3.986,3.986,0,0,1-3.981-3.982,2.372,2.372,0,0,0-.994-1.931L30.6,65.918,36.8,61.495a2.374,2.374,0,0,0,.994-1.931V41.771a3.986,3.986,0,0,1,3.981-3.982h30.5a3.986,3.986,0,0,1,3.981,3.982Z" fill="#ffeeaf"/>
  <text id="A" transform="translate(14.284 30.511)" fill="#ffeeaf" font-size="24" font-family="Gilroy-ExtraBold" font-weight="800"><tspan x="0" y="0">A</tspan></text>
  <text id="B" transform="translate(49.369 64.455)" fill="#ffeeaf" font-size="24" font-family="Gilroy-ExtraBold" font-weight="800"><tspan x="0" y="0">B</tspan></text>
</svg>
