<svg xmlns="http://www.w3.org/2000/svg" width="81" height="81" viewBox="0 0 81 81">
  <g id="maths" transform="translate(-65 -65)">
    <path id="Path_29" data-name="Path 29" d="M65,67.4V143.6a2.4,2.4,0,0,0,2.4,2.4H143.6a2.4,2.4,0,0,0,2.4-2.4V67.4a2.4,2.4,0,0,0-2.4-2.4H67.4A2.4,2.4,0,0,0,65,67.4ZM141.145,103.1H110.309a2.4,2.4,0,0,1-2.4-2.4V72.259a2.4,2.4,0,0,1,2.4-2.4h28.432a2.4,2.4,0,0,1,2.4,2.4V103.1ZM103.1,72.259v28.432a2.4,2.4,0,0,1-2.4,2.4H72.259a2.4,2.4,0,0,1-2.4-2.4V72.259a2.4,2.4,0,0,1,2.4-2.4h28.432A2.4,2.4,0,0,1,103.1,72.259ZM72.259,107.9h28.432a2.4,2.4,0,0,1,2.4,2.4v28.432a2.4,2.4,0,0,1-2.4,2.4H72.259a2.4,2.4,0,0,1-2.4-2.4V110.309A2.4,2.4,0,0,1,72.259,107.9ZM107.9,141.145V110.309a2.4,2.4,0,0,1,2.4-2.4h28.432a2.4,2.4,0,0,1,2.4,2.4v28.432a2.4,2.4,0,0,1-2.4,2.4H107.9Z" fill="#4abbc4"/>
    <path id="Path_30" data-name="Path 30" d="M127.865,138.308h0a2.423,2.423,0,0,0,2.424-2.424v-3.171a2.424,2.424,0,0,1,2.424-2.424h3.171a2.424,2.424,0,0,0,2.424-2.424h0a2.424,2.424,0,0,0-2.424-2.424h-3.171a2.424,2.424,0,0,1-2.424-2.424v-3.171a2.423,2.423,0,0,0-2.424-2.424h0a2.424,2.424,0,0,0-2.424,2.424v3.171a2.423,2.423,0,0,1-2.424,2.424h-3.171a2.424,2.424,0,0,0-2.424,2.424h0a2.424,2.424,0,0,0,2.424,2.424h3.171a2.423,2.423,0,0,1,2.424,2.424v3.171A2.424,2.424,0,0,0,127.865,138.308Z" transform="translate(-41.218 -41.218)" fill="#4abbc4"/>
    <path id="Path_31" data-name="Path 31" d="M299.056,334.382h16.037a2.424,2.424,0,0,1,2.424,2.424h0a2.424,2.424,0,0,1-2.424,2.424H299.056a2.424,2.424,0,0,1-2.424-2.424h0A2.424,2.424,0,0,1,299.056,334.382Z" transform="translate(-182.771 -212.291)" fill="#4abbc4"/>
    <path id="Path_32" data-name="Path 32" d="M144.123,308.564h0a2.424,2.424,0,0,0-3.428,0l-2.243,2.243a2.424,2.424,0,0,1-3.428,0l-2.243-2.243a2.424,2.424,0,0,0-3.428,0h0a2.423,2.423,0,0,0,0,3.427l2.243,2.243a2.423,2.423,0,0,1,0,3.427l-2.243,2.243a2.423,2.423,0,0,0,0,3.427h0a2.424,2.424,0,0,0,3.428,0l2.243-2.243a2.424,2.424,0,0,1,3.428,0l2.243,2.243a2.424,2.424,0,0,0,3.428,0h0a2.423,2.423,0,0,0,0-3.427l-2.243-2.243a2.423,2.423,0,0,1,0-3.427l2.243-2.243A2.423,2.423,0,0,0,144.123,308.564Z" transform="translate(-50.177 -191.461)" fill="#4abbc4"/>
    <path id="Path_33" data-name="Path 33" d="M299.056,154.939h16.037a2.424,2.424,0,0,1,2.424,2.424h0a2.424,2.424,0,0,1-2.424,2.424H299.056a2.424,2.424,0,0,1-2.424-2.424h0A2.424,2.424,0,0,1,299.056,154.939Z" transform="translate(-182.771 -70.878)" fill="#4abbc4"/>
    <path id="Path_34" data-name="Path 34" d="M336.4,288.854h.072a2.424,2.424,0,0,1,2.424,2.424h0a2.424,2.424,0,0,1-2.424,2.424H336.4a2.424,2.424,0,0,1-2.424-2.424h0A2.424,2.424,0,0,1,336.4,288.854Z" transform="translate(-211.975 -176.412)" fill="#4abbc4"/>
    <path id="Path_35" data-name="Path 35" d="M336.4,378.846h.072a2.424,2.424,0,0,1,2.424,2.424h0a2.424,2.424,0,0,1-2.424,2.424H336.4a2.424,2.424,0,0,1-2.424-2.424h0A2.424,2.424,0,0,1,336.4,378.846Z" transform="translate(-211.975 -247.413)" fill="#4abbc4"/>
  </g>
</svg>
