<svg id="social" xmlns="http://www.w3.org/2000/svg" width="81" height="81" viewBox="0 0 81 81">
  <g id="Group_28" data-name="Group 28">
    <path id="Path_37" data-name="Path 37" d="M40.5,0A40.5,40.5,0,1,0,81,40.5,40.546,40.546,0,0,0,40.5,0Zm0,74.25a33.626,33.626,0,0,1-23.625-9.688v-5.5a6.349,6.349,0,0,1,1.549-3.835,7.817,7.817,0,0,0,1.826-4.6c0-3.218-2.905-3.545-4.468-3.719a4.7,4.7,0,0,1-2.777-.849,10.676,10.676,0,0,1-1.4-2.17A13.01,13.01,0,0,0,6.856,38.4,33.765,33.765,0,0,1,40.5,6.75c.926,0,1.837.065,2.745.139a3.418,3.418,0,0,0-.563.355A1.686,1.686,0,0,0,42.753,9.7a4.506,4.506,0,0,1,.747.811c-.038.081-.348.61-2.075,1.486-2.851,1.445-6.143,4.4-6.633,7.482a4.111,4.111,0,0,0,1.14,3.654,1.686,1.686,0,0,0,1.193.494,13.167,13.167,0,0,0,5.906-1.7,12.814,12.814,0,0,1,5.906-1.671c6.623,0,11.813,1.483,11.813,3.375,0,.694-.216.906-.3.985-.829.816-3.652.763-6.134.725-.657-.012-1.33-.023-2.006-.023a7.308,7.308,0,0,1-3.823-.723,9.215,9.215,0,0,0-4.614-.964c-2.782,0-7.951.5-11.318,3.869-2.754,2.752-2.462,6.045-2.271,8.222.044.5.089.976.089,1.409,0,3.324,3.4,5.063,6.75,5.063,5.158,0,9.617.962,10.125,1.688a9.773,9.773,0,0,0,1.013,4.214,5.887,5.887,0,0,1,.674,2.536,1.685,1.685,0,0,1-.463,1.363,5.311,5.311,0,0,0-1.224,3.7c0,3.551,3.42,7.447,3.808,7.881a1.691,1.691,0,0,0,1.254.557,1.648,1.648,0,0,0,.419-.053c.994-.255,9.706-2.653,9.706-8.385a3.214,3.214,0,0,1,1.406-3.016,4.6,4.6,0,0,0,1.969-3.734c0-1.353,2.4-4.845,4.626-7.305a1.687,1.687,0,0,0-.216-2.465c-1.312-1.017-4.934-4.327-6.147-7.539a9.651,9.651,0,0,1,2.231,1.628,2.811,2.811,0,0,0,2.172.8c1.367-.078,2.99-1.158,4.529-2.5A33.641,33.641,0,0,1,40.5,74.25Z" fill="#c4d5ff"/>
  </g>
</svg>
